<svg width="272" height="42" viewBox="0 0 272 42" fill="none" xmlns="http://www.w3.org/2000/svg">
<path d="M29.375 8.7375C29.206 8.0987 28.8724 7.51544 28.4074 7.04601C27.9423 6.57659 27.3621 6.23745 26.725 6.0625C24.375 5.4375 15 5.4375 15 5.4375C15 5.4375 5.625 5.4375 3.275 6.0625C2.63781 6.23745 2.05771 6.57659 1.59267 7.04601C1.12764 7.51544 0.79396 8.0987 0.625 8.7375C0 11.0875 0 15.9999 0 15.9999C0 15.9999 0 20.9124 0.625 23.2624C0.79396 23.9013 1.12764 24.4846 1.59267 24.9539C2.05771 25.4234 2.63781 25.7626 3.275 25.9376C5.6125 26.5626 15 26.5626 15 26.5626C15 26.5626 24.375 26.5626 26.725 25.9376C27.3621 25.7626 27.9423 25.4234 28.4074 24.9539C28.8724 24.4846 29.206 23.9013 29.375 23.2624C30 20.9124 30 15.9999 30 15.9999C30 15.9999 30 11.0875 29.375 8.7375ZM11.925 20.4624V11.5375L19.775 15.9999L11.925 20.4624Z" fill="#013A4C"/>
<path fill-rule="evenodd" clip-rule="evenodd" d="M134.25 17.675V25.825H129.425V18.2125C129.425 16.3125 128.725 15 126.987 15C126.62 14.9966 126.255 15.0705 125.918 15.217C125.58 15.3635 125.277 15.5792 125.029 15.8504C124.78 16.1214 124.591 16.4417 124.474 16.7905C124.357 17.1394 124.315 17.5087 124.35 17.875V25.825H119.525C119.525 25.825 119.588 12.95 119.525 11.6H124.35V13.625L124.312 13.6625H124.35V13.625C124.794 12.8755 125.433 12.2608 126.199 11.8468C126.966 11.4329 127.83 11.2352 128.7 11.275C131.875 11.275 134.25 13.3 134.25 17.675ZM114.475 4.75C112.825 4.75 111.75 5.8125 111.75 7.2125C111.75 8.575 112.8 9.6625 114.413 9.6625H114.45C116.125 9.6625 117.175 8.575 117.175 7.2125C117.15 5.8125 116.125 4.75 114.475 4.75ZM112.038 25.825H116.863V11.6H112.038V25.825Z" fill="#013A4C"/>
<path fill-rule="evenodd" clip-rule="evenodd" d="M230.375 4.74998C227.15 4.74998 226.75 4.76248 225.475 4.82498C224.225 4.87498 223.35 5.07498 222.6 5.36248C221.813 5.67498 221.15 6.07498 220.487 6.73748C219.883 7.3207 219.414 8.02889 219.113 8.81248C218.825 9.56248 218.625 10.4125 218.575 11.675C218.5 12.925 218.5 13.325 218.5 16.525C218.5 19.725 218.512 20.125 218.575 21.3875C218.625 22.6375 218.825 23.5 219.125 24.2375C219.425 25.0125 219.837 25.675 220.5 26.325C221.15 26.9875 221.813 27.3875 222.6 27.7C223.35 27.975 224.225 28.175 225.475 28.2375C226.75 28.2875 227.15 28.3125 230.375 28.3125C233.6 28.3125 234 28.2875 235.275 28.2375C236.525 28.175 237.4 27.9875 238.15 27.6875C238.945 27.3925 239.666 26.9275 240.263 26.325C240.913 25.675 241.325 25.0125 241.638 24.2375C241.925 23.4875 242.125 22.6375 242.175 21.3875C242.238 20.1375 242.25 19.725 242.25 16.525C242.25 13.325 242.238 12.925 242.175 11.675C242.125 10.425 241.925 9.56248 241.625 8.81248C241.324 8.0246 240.855 7.31208 240.25 6.72498C239.657 6.12399 238.94 5.65909 238.15 5.36248C237.4 5.07498 236.525 4.87498 235.275 4.82498C233.643 4.75285 232.009 4.72785 230.375 4.74998ZM230.375 6.87498C233.55 6.87498 233.925 6.87498 235.175 6.93748C236.337 6.98748 236.962 7.18748 237.375 7.34998C237.938 7.56248 238.325 7.81248 238.75 8.22498C239.163 8.63748 239.413 9.03748 239.625 9.58748C239.8 9.99998 240 10.625 240.037 11.775C240.1 13.0125 240.113 13.3875 240.113 16.525C240.113 19.675 240.1 20.05 240.037 21.2875C239.987 22.4375 239.788 23.0625 239.638 23.475C239.413 24.025 239.163 24.4125 238.75 24.825C238.325 25.2375 237.938 25.5 237.375 25.7C236.67 25.9612 235.926 26.1007 235.175 26.1125C233.925 26.175 233.55 26.1875 230.375 26.1875C227.2 26.1875 226.825 26.175 225.575 26.1125C224.824 26.1047 224.08 25.9695 223.375 25.7125C222.857 25.527 222.387 25.2281 222 24.8375C221.61 24.4546 221.311 23.989 221.125 23.475C220.862 22.7751 220.723 22.035 220.713 21.2875C220.65 20.0375 220.638 19.6625 220.638 16.5375C220.638 13.3875 220.65 13.0125 220.713 11.775C220.763 10.625 220.963 9.99998 221.113 9.58748C221.338 9.03748 221.587 8.63748 222.012 8.22498C222.425 7.81248 222.812 7.56248 223.375 7.34998C224.08 7.08869 224.824 6.9492 225.575 6.93748C226.825 6.88748 227.2 6.87498 230.375 6.87498ZM224.275 16.525C224.278 15.7272 224.439 14.9378 224.747 14.2021C225.055 13.4663 225.506 12.7984 226.072 12.2366C226.638 11.6748 227.31 11.2301 228.048 10.9278C228.787 10.6256 229.577 10.4717 230.375 10.475C233.75 10.475 236.475 13.1875 236.475 16.525C236.472 17.3227 236.311 18.1121 236.003 18.8478C235.695 19.5837 235.244 20.2516 234.678 20.8133C234.112 21.3751 233.44 21.8198 232.702 22.1221C231.963 22.4243 231.173 22.5782 230.375 22.575C229.577 22.5782 228.787 22.4243 228.048 22.1221C227.31 21.8198 226.638 21.3751 226.072 20.8133C225.506 20.2516 225.055 19.5837 224.747 18.8478C224.439 18.1121 224.278 17.3227 224.275 16.525ZM230.375 20.45C229.857 20.4532 229.343 20.3542 228.863 20.1586C228.384 19.963 227.947 19.6746 227.579 19.31C227.211 18.9453 226.918 18.5117 226.718 18.0337C226.518 17.5558 226.414 17.0431 226.412 16.525C226.414 16.0068 226.518 15.4941 226.718 15.0162C226.918 14.5383 227.211 14.1046 227.579 13.74C227.947 13.3753 228.384 13.0869 228.863 12.8913C229.343 12.6957 229.857 12.5967 230.375 12.6C232.562 12.6 234.337 14.35 234.337 16.525C234.336 17.0431 234.232 17.5558 234.032 18.0337C233.832 18.5117 233.539 18.9453 233.171 19.31C232.803 19.6746 232.366 19.963 231.887 20.1586C231.407 20.3542 230.893 20.4532 230.375 20.45ZM236.712 11.65C237.5 11.65 238.137 11.025 238.137 10.2375C238.137 9.46248 237.512 8.82498 236.712 8.82498C235.925 8.82498 235.288 9.44998 235.288 10.2375C235.288 11.025 235.925 11.65 236.712 11.65Z" fill="#013A4C"/>
<path fill-rule="evenodd" clip-rule="evenodd" d="M177.762 27.0625H167C166.312 27.0625 165.762 26.5125 165.762 25.8375V5.9875C165.75 5.3 166.3 4.75 167 4.75H187C187.7 4.75 188.25 5.3 188.25 5.9875V25.8375C188.25 26.5125 187.7 27.0625 187 27.0625H181.275V18.425H184.2L184.637 15.05H181.275V12.9C181.275 11.925 181.55 11.275 182.962 11.275H184.75V8.25C184.45 8.2125 183.375 8.125 182.125 8.125C179.537 8.125 177.762 9.6875 177.762 12.575V15.05H174.837V18.425H177.762V27.0625Z" fill="#013A4C"/>
<path fill-rule="evenodd" clip-rule="evenodd" d="M80.25 9.45C79.425 9.825 78.5375 10.075 77.6 10.2C78.569 9.60308 79.2886 8.6748 79.625 7.5875C78.7375 8.125 77.75 8.525 76.7 8.7375C76.272 8.26831 75.7506 7.89366 75.1695 7.63751C74.5884 7.38138 73.9601 7.24939 73.325 7.25C72.6217 7.25466 71.9286 7.41834 71.2976 7.7288C70.6666 8.03926 70.114 8.48845 69.6811 9.04274C69.2483 9.59703 68.9464 10.2421 68.7981 10.9295C68.6499 11.617 68.6591 12.3291 68.825 13.0125C66.985 12.9142 65.1868 12.4266 63.5492 11.5819C61.9116 10.7373 60.4718 9.55475 59.325 8.1125C58.7297 9.14384 58.5457 10.3619 58.8099 11.5231C59.0741 12.6842 59.767 13.7028 60.75 14.375C60.0127 14.3523 59.292 14.1506 58.65 13.7875V13.85C58.6466 14.9265 59.0137 15.9713 59.6898 16.809C60.3658 17.6466 61.3096 18.2261 62.3625 18.45C61.6816 18.6348 60.9674 18.6604 60.275 18.525C60.5606 19.4525 61.1308 20.2666 61.9048 20.8521C62.6787 21.4378 63.6173 21.7649 64.5875 21.7875C63.6362 22.5539 62.5412 23.1224 61.367 23.4594C60.1927 23.7964 58.963 23.8953 57.75 23.75C59.8515 25.1298 62.311 25.8641 64.825 25.8625C73.325 25.8625 77.95 18.7 77.95 12.4875V11.875C78.8566 11.212 79.6359 10.3904 80.25 9.45Z" fill="#013A4C"/>
</svg>
